<svg xmlns="http://www.w3.org/2000/svg" version="1.1" xmlns:xlink="http://www.w3.org/1999/xlink" width="1500" height="220" viewBox="0 0 1500 220"><svg xml:space="preserve" width="1500" height="220" data-version="2" data-id="lg_QR4ZAMmpxjBVyv8sje" viewBox="0 0 571 220" x="0" y="0"><rect width="100%" height="100%" fill="transparent"></rect><path fill="#ffa14a" d="M47.555 14.818q2.34 0 3.77 1.37 1.43 1.36 1.43 2.92 0 1.56-.78 1.82-13 0-20.15 9.75-7.15 9.75-7.15 27.76 0 18 7.8 30.42 7.8 12.41 21.71 12.41t22.16-13.13q8.26-13.13 8.26-33.08 0-19.96-9.69-33.15-9.68-13.2-25.28-13.2-15.6 0-26.59 8.91-10.98 8.9-11.5 21.25-.52 1.04-2.47 1.04-3.38-.26-3.38-4.42t1.69-8.51q1.69-4.36 5.46-8.78 3.77-4.42 8.84-7.99 5.07-3.58 12.61-5.79 7.54-2.21 16.25-2.21 20.93 0 33.47 15.02 12.55 15.01 12.55 38.02 0 23.01-11.51 37.12-11.5 14.1-30.81 14.1-19.3 0-30.42-13.39-11.11-13.39-11.11-36.14 0-10.66 3.44-19.11 3.45-8.45 8.91-13.26 11.05-9.75 22.49-9.75"></path><rect width="90.87" height="104.26" x="-45.44" y="-52.13" fill="none" rx="0" ry="0" transform="translate(51.63 54.84)"></rect><path fill="#ffa14a" d="M158.185 52.518q4.29 7.41 4.29 19.96 0 12.54-6.31 20.28-6.3 7.73-16.44 7.73-5.98 0-10.6-4.16-4.61-4.16-4.61-13.26 0-21.32 21.19-31.85-3.38-4.68-9.43-4.68-6.04 0-11.5 5.98t-5.46 17.94v77.35q-1.3 1.82-4.55 1.82t-5.2-2.01q-1.95-2.02-1.95-5.92v-98.41q1.3-1.82 4.55-1.82t5.2 2.02q1.95 2.01 1.95 5.91v2.86q6.76-10.79 17.87-10.79 11.12 0 17.36 6.24 13.65-4.42 30.55-4.42 3.51 0 3.51 2.86l-.78 1.95q-15.73 0-29.64 4.42m-18.72 42.9q10.66 0 10.66-21.19 0-11.18-1.82-17.55-17.16 9.36-17.16 26.78 0 5.72 2.47 8.84t5.85 3.12"></path><rect width="80.99" height="108.16" x="-40.49" y="-54.08" fill="none" rx="0" ry="0" transform="translate(148.61 96.05)"></rect><path fill="#ffa14a" d="M178.985 30.158q0-3.9 1.95-5.91 1.95-2.02 4.94-2.02t4.81 1.82v19.24h17.81q2.73 0 3.57 1.04.85 1.04.85 3.51h-22.23v32.76q0 7.15 4.09 11.05 4.1 3.9 9.43 3.9 8.06 0 11.83-5.98 3.77-5.98 3.77-19.37.26-.78 1.95-.78 2.34 0 2.34 6.89 0 10.53-5.27 17.42-5.26 6.89-16.18 6.89t-17.29-5.72q-6.37-5.72-6.37-17.03z"></path><rect width="45.11" height="78.39" x="-22.55" y="-39.2" fill="none" rx="0" ry="0" transform="translate(202.04 61.92)"></rect><path fill="#ffa14a" d="m220.975 28.728-1.11-1.1q-1.1-1.11-1.1-4.36t2.21-5.52q2.21-2.28 5.46-2.28t5.52 2.28q2.28 2.27 2.28 5.52 0 3.25-2.28 5.46-2.27 2.21-5.52 2.21-3.25 0-5.46-2.21m-.52 20.67q0-3.9 1.95-5.91 1.95-2.02 4.94-2.02t4.81 1.82v37.31q0 7.41 2.86 11.18 2.86 3.77 7.8 3.77 4.94 0 9.23-5.98t4.29-19.37q.26-.78 1.95-.78 2.34 0 2.34 6.89 0 10.01-5.46 17.16t-13.91 7.15q-10.53 0-15.67-6.24-5.13-6.24-5.13-17.68z"></path><rect width="41.86" height="85.15" x="-20.93" y="-42.58" fill="none" rx="0" ry="0" transform="translate(240.2 58.54)"></rect><path fill="#ffa14a" d="M280.645 74.098q-5.2-1.82-10.34-3.83-5.13-2.02-8.64-5.79-3.51-3.77-3.51-9.68 0-5.92 5.46-9.62 5.46-3.71 15.92-3.71 10.47 0 16.38 3.64 5.92 3.64 5.92 8.45 0 2.34-1.76 3.77-1.75 1.43-3.44 1.43-3.25 0-4.29-1.56.78-.91.78-3.57 0-2.67-4.03-4.88t-8.97-2.21q-4.94 0-8.19 1.82-3.25 1.82-3.25 5.53 0 3.7 3.7 6.43 3.71 2.73 8.97 4.55 5.27 1.82 10.53 3.9 5.27 2.08 8.97 5.92 3.71 3.83 3.71 9.42 0 8.32-7.22 12.42-7.21 4.09-18.98 4.09-11.76 0-19.11-6.82-7.34-6.83-7.34-16.97 0-3.64 1.43-5.72 1.43-2.08 3.25-2.08 3.38 0 3.9 1.17l.26.39q-.78 1.95-.78 4.81 0 8.71 5.07 14.43 5.07 5.72 14.04 5.72 13.78 0 13.91-9.75 0-7.41-12.35-11.7"></path><rect width="52.65" height="59.15" x="-26.32" y="-29.57" fill="none" rx="0" ry="0" transform="translate(278.74 71.54)"></rect><path fill="#ffa14a" d="M362.805 52.518q4.29 7.41 4.29 19.96 0 12.54-6.31 20.28-6.3 7.73-16.44 7.73-5.98 0-10.6-4.16-4.61-4.16-4.61-13.26 0-21.32 21.19-31.85-3.38-4.68-9.43-4.68-6.04 0-11.5 5.98t-5.46 17.94v77.35q-1.3 1.82-4.55 1.82t-5.2-2.01q-1.95-2.02-1.95-5.92v-98.41q1.3-1.82 4.55-1.82t5.2 2.02q1.95 2.01 1.95 5.91v2.86q6.76-10.79 17.87-10.79 11.12 0 17.36 6.24 13.65-4.42 30.55-4.42 3.51 0 3.51 2.86l-.78 1.95q-15.73 0-29.64 4.42m-18.72 42.9q10.66 0 10.66-21.19 0-11.18-1.82-17.55-17.16 9.36-17.16 26.78 0 5.72 2.47 8.84t5.85 3.12"></path><rect width="80.99" height="108.16" x="-40.49" y="-54.08" fill="none" rx="0" ry="0" transform="translate(353.23 96.05)"></rect><path fill="#ffa14a" d="M422.215 45.238q1.69-3.77 5.39-3.77 3.71 0 5.53 1.82v37.31q0 7.41 2.34 11.18 2.34 3.77 6.37 3.77 12.22 0 12.22-25.35.13-.78 1.95-.78 2.34 0 2.34 6.89 0 11.05-4.75 17.68-4.74 6.63-13.32 6.63-13.13 0-17.42-11.57-2.47 5.33-6.76 8.45-4.29 3.12-9.75 3.12-22.75 0-22.75-29.77 0-15.08 7.08-22.23 7.09-7.15 18.79-7.15 8.97 0 12.74 3.77m-24.44 41.6.91 2.86q.91 2.86 3.25 4.36 2.34 1.49 6.24 1.49 3.9 0 8.51-4.87 4.62-4.88 4.62-12.68v-17.81q0-6.11-3.19-9.88-3.18-3.77-7.15-3.77-3.96 0-6.3.78t-4.42 3.25q-4.29 4.68-4.29 20.28 0 10.27 1.82 15.99"></path><rect width="74.75" height="59.15" x="-37.38" y="-29.57" fill="none" rx="0" ry="0" transform="translate(421.48 71.54)"></rect><path fill="#ffa14a" d="M508.795 73.578q2.73 0 2.73 3.77t-1.56 7.54q-1.56 3.77-4.49 7.41-2.92 3.64-8.19 5.98-5.26 2.34-11.89 2.34-14.56 0-22.82-7.34-8.25-7.35-8.25-21.58 0-14.24 7.28-22.23 7.28-8 18.59-8 8.19 0 11.96 4.36 3.77 4.35 3.77 10.33 0 3.25-1.95 5.2-1.95 1.95-3.77 1.95-3.38 0-4.42-1.56.78-1.95.78-5.59 0-3.64-2.47-6.63-2.47-2.99-5.98-2.99-6.11 0-8.78 5.98-2.66 5.98-2.66 18.79 0 12.8 5 18.52 5.01 5.72 13.98 5.72t15.08-5.52q6.11-5.53 6.11-15.67.13-.78 1.95-.78"></path><rect width="57.2" height="59.15" x="-28.6" y="-29.57" fill="none" rx="0" ry="0" transform="translate(483.43 71.54)"></rect><path fill="#ffa14a" d="M561.575 70.978q2.73 0 2.73 4.16 0 9.62-6.7 17.55-6.69 7.93-20.34 7.93-13.65 0-21.91-7.34-8.25-7.35-8.25-21.58 0-14.24 7.28-22.23 7.28-8 18.59-8 8.19 0 11.96 4.36 3.77 4.35 3.77 10.33 0 9.75-8.13 16.19-8.12 6.43-20.73 6.43 1.17 8.32 6.04 12.55 4.88 4.22 12.87 4.22 8 0 14.43-6.04 6.44-6.05 6.44-17.75.13-.78 1.95-.78m-42.12 1.82v1.17q8.06-1.04 13.97-5.07 5.92-4.03 5.92-11.96 0-5.07-2.21-7.73-2.21-2.67-6.24-2.67-6.11 0-8.78 5.98-2.66 5.98-2.66 20.28"></path><rect width="57.2" height="59.15" x="-28.6" y="-29.57" fill="none" rx="0" ry="0" transform="translate(536.2 71.54)"></rect><path stroke="#ffa14a" stroke-width="12" d="m113.298 69.676.304 142.116M318.436 55.633l-.536 154.158m-209.298-2.978h215.282"></path></svg></svg>